<svg xmlns="http://www.w3.org/2000/svg" xmlns:xlink="http://www.w3.org/1999/xlink" id="body_1" preserveAspectRatio="xMinYMin meet" viewBox="0 0 793 1123"><defs><clipPath id="1"><path id="" clip-rule="evenodd" transform="matrix(1 0 0 1 0 0)" d="M0 842L0 0L0 0L595 0L595 0L595 842L595 842L0 842z" /></clipPath><clipPath id="2"><path id="" clip-rule="evenodd" transform="matrix(1 0 0 1 0 0)" d="M30.6 30.59998L564.36 30.59998L564.36 30.59998L564.36 732.552L564.36 732.552L30.6 732.552L30.6 732.552L30.6 30.59998z" /></clipPath></defs><g transform="matrix(1.333333 0 0 1.333333 0 0)"><g clip-path="url(#1)"><g clip-path="url(#2)"><path id="1" transform="matrix(1 0 0 -1 0 842)" d="M30.6 764.552L564.3599 764.552L564.3599 763.0161L30.6 763.0161z" stroke="none" fill="#FFFFFF" fill-rule="nonzero" /><path id="2" transform="matrix(1 0 0 -1 0 842)" d="M30.6 657.032L564.3599 657.032L564.3599 655.496L30.6 655.496z" stroke="none" fill="#FFFFFF" fill-rule="nonzero" /><path id="3" transform="matrix(1 0 0 -1 0 842)" d="M30.6 764.552L32.136 764.552L32.136 655.496L30.6 655.496z" stroke="none" fill="#FFFFFF" fill-rule="nonzero" /><path id="4" transform="matrix(1 0 0 -1 0 842)" d="M562.8239 764.552L564.3599 764.552L564.3599 655.496L562.8239 655.496z" stroke="none" fill="#FFFFFF" fill-rule="nonzero" /><path id="5" transform="matrix(1 0 0 -1 0 842)" d="M32.136 749.96L562.8239 749.96L562.8239 749.192L32.136 749.192z" stroke="none" fill="#404040" fill-rule="nonzero" /><path id="6" transform="matrix(1 0 0 -1 0 842)" d="M30.6 652.424L564.3599 652.424L564.3599 650.888L30.6 650.888z" stroke="none" fill="#FFFFFF" fill-rule="nonzero" /><path id="7" transform="matrix(1 0 0 -1 0 842)" d="M30.6 457.352L564.3599 457.352L564.3599 455.816L30.6 455.816z" stroke="none" fill="#FFFFFF" fill-rule="nonzero" /><path id="8" transform="matrix(1 0 0 -1 0 842)" d="M30.6 652.424L32.136 652.424L32.136 455.816L30.6 455.816z" stroke="none" fill="#FFFFFF" fill-rule="nonzero" /><path id="9" transform="matrix(1 0 0 -1 0 842)" d="M562.8239 652.424L564.3599 652.424L564.3599 455.816L562.8239 455.816z" stroke="none" fill="#FFFFFF" fill-rule="nonzero" /><path id="10" transform="matrix(1 0 0 -1 0 842)" d="M32.136 637.832L562.8239 637.832L562.8239 637.064L32.136 637.064z" stroke="none" fill="#404040" fill-rule="nonzero" /><path id="11" transform="matrix(1 0 0 -1 0 842)" d="M30.6 452.744L564.3599 452.744L564.3599 451.208L30.6 451.208z" stroke="none" fill="#FFFFFF" fill-rule="nonzero" /><path id="12" transform="matrix(1 0 0 -1 0 842)" d="M30.6 368.264L564.3599 368.264L564.3599 366.728L30.6 366.728z" stroke="none" fill="#FFFFFF" fill-rule="nonzero" /><path id="13" transform="matrix(1 0 0 -1 0 842)" d="M30.6 452.744L32.136 452.744L32.136 366.728L30.6 366.728z" stroke="none" fill="#FFFFFF" fill-rule="nonzero" /><path id="14" transform="matrix(1 0 0 -1 0 842)" d="M562.8239 452.744L564.3599 452.744L564.3599 366.728L562.8239 366.728z" stroke="none" fill="#FFFFFF" fill-rule="nonzero" /><path id="15" transform="matrix(1 0 0 -1 0 842)" d="M32.136 438.152L562.8239 438.152L562.8239 437.384L32.136 437.384z" stroke="none" fill="#404040" fill-rule="nonzero" /><path id="16" transform="matrix(1 0 0 -1 0 842)" d="M30.6 363.656L564.3599 363.656L564.3599 362.12L30.6 362.12z" stroke="none" fill="#FFFFFF" fill-rule="nonzero" /><path id="17" transform="matrix(1 0 0 -1 0 842)" d="M30.6 170.888L564.3599 170.888L564.3599 169.352L30.6 169.352z" stroke="none" fill="#FFFFFF" fill-rule="nonzero" /><path id="18" transform="matrix(1 0 0 -1 0 842)" d="M30.6 363.656L32.136 363.656L32.136 169.352L30.6 169.352z" stroke="none" fill="#FFFFFF" fill-rule="nonzero" /><path id="19" transform="matrix(1 0 0 -1 0 842)" d="M562.8239 363.656L564.3599 363.656L564.3599 169.352L562.8239 169.352z" stroke="none" fill="#FFFFFF" fill-rule="nonzero" /><path id="20" transform="matrix(1 0 0 -1 0 842)" d="M32.136 349.064L562.8239 349.064L562.8239 348.296L32.136 348.296z" stroke="none" fill="#404040" fill-rule="nonzero" /><path id="21" transform="matrix(1 0 0 -1 0 842)" d="M30.6 166.28L564.3599 166.28L564.3599 164.744L30.6 164.744z" stroke="none" fill="#FFFFFF" fill-rule="nonzero" /><path id="22" transform="matrix(1 0 0 -1 0 842)" d="M30.6 166.28L32.136 166.28L32.136 109.448L30.6 109.448z" stroke="none" fill="#FFFFFF" fill-rule="nonzero" /><path id="23" transform="matrix(1 0 0 -1 0 842)" d="M562.8239 166.28L564.3599 166.28L564.3599 109.448L562.8239 109.448z" stroke="none" fill="#FFFFFF" fill-rule="nonzero" /><path id="24" transform="matrix(1 0 0 -1 0 842)" d="M32.136 151.688L562.8239 151.688L562.8239 150.92L32.136 150.92z" stroke="none" fill="#404040" fill-rule="nonzero" /><path id="878" transform="matrix(1 0 0 -1 0 842)" d="M39.816 614.024C 39.816 613.1757 39.12831 612.488 38.28 612.488C 37.43169 612.488 36.744 613.1757 36.744 614.024C 36.744 614.8723 37.43169 615.5601 38.28 615.5601C 39.12831 615.5601 39.816 614.8723 39.816 614.024z" stroke="#000000" stroke-width="0.7679999" fill="#000000" fill-rule="evenodd" /><path id="889" transform="matrix(1 0 0 -1 0 842)" d="M39.816 600.2C 39.816 599.3517 39.12831 598.664 38.28 598.664C 37.43169 598.664 36.744 599.3517 36.744 600.2C 36.744 601.0483 37.43169 601.736 38.28 601.736C 39.12831 601.736 39.816 601.0483 39.816 600.2z" stroke="#000000" stroke-width="0.7679999" fill="#000000" fill-rule="evenodd" /><path id="1148" transform="matrix(1 0 0 -1 0 842)" d="M39.816 561.032C 39.816 560.1837 39.12831 559.496 38.28 559.496C 37.43169 559.496 36.744 560.1837 36.744 561.032C 36.744 561.8804 37.43169 562.568 38.28 562.568C 39.12831 562.568 39.816 561.8804 39.816 561.032z" stroke="#000000" stroke-width="0.7679999" fill="#000000" fill-rule="evenodd" /><path id="1167" transform="matrix(1 0 0 -1 0 842)" d="M39.816 547.208C 39.816 546.3597 39.12831 545.672 38.28 545.672C 37.43169 545.672 36.744 546.3597 36.744 547.208C 36.744 548.0563 37.43169 548.744 38.28 548.744C 39.12831 548.744 39.816 548.0563 39.816 547.208z" stroke="#000000" stroke-width="0.7679999" fill="#000000" fill-rule="evenodd" /><path id="1182" transform="matrix(1 0 0 -1 0 842)" d="M53.64 533.384C 53.64 532.5357 52.95231 531.848 52.104 531.848C 51.25569 531.848 50.568 532.5357 50.568 533.384C 50.568 534.2323 51.25569 534.92 52.104 534.92C 52.95231 534.92 53.64 534.2323 53.64 533.384z" stroke="#000000" stroke-width="0.7679999" stroke-linecap="square" fill="none" /><path id="1224" transform="matrix(1 0 0 -1 0 842)" d="M53.64 519.5601C 53.64 518.7117 52.95231 518.024 52.104 518.024C 51.25569 518.024 50.568 518.7117 50.568 519.5601C 50.568 520.4083 51.25569 521.096 52.104 521.096C 52.95231 521.096 53.64 520.4083 53.64 519.5601z" stroke="#000000" stroke-width="0.7679999" stroke-linecap="square" fill="none" /><path id="1255" transform="matrix(1 0 0 -1 0 842)" d="M53.64 505.736C 53.64 504.8877 52.95231 504.2 52.104 504.2C 51.25569 504.2 50.568 504.8877 50.568 505.736C 50.568 506.5844 51.25569 507.272 52.104 507.272C 52.95231 507.272 53.64 506.5844 53.64 505.736z" stroke="#000000" stroke-width="0.7679999" stroke-linecap="square" fill="none" /><path id="1347" transform="matrix(1 0 0 -1 0 842)" d="M53.64 491.912C 53.64 491.0637 52.95231 490.376 52.104 490.376C 51.25569 490.376 50.568 491.0637 50.568 491.912C 50.568 492.7603 51.25569 493.448 52.104 493.448C 52.95231 493.448 53.64 492.7603 53.64 491.912z" stroke="#000000" stroke-width="0.7679999" stroke-linecap="square" fill="none" /><path id="1379" transform="matrix(1 0 0 -1 0 842)" d="M53.64 478.088C 53.64 477.2397 52.95231 476.552 52.104 476.552C 51.25569 476.552 50.568 477.2397 50.568 478.088C 50.568 478.9363 51.25569 479.624 52.104 479.624C 52.95231 479.624 53.64 478.9363 53.64 478.088z" stroke="#000000" stroke-width="0.7679999" stroke-linecap="square" fill="none" /><path id="1410" transform="matrix(1 0 0 -1 0 842)" d="M39.816 464.264C 39.816 463.4157 39.12831 462.728 38.28 462.728C 37.43169 462.728 36.744 463.4157 36.744 464.264C 36.744 465.1123 37.43169 465.8 38.28 465.8C 39.12831 465.8 39.816 465.1123 39.816 464.264z" stroke="#000000" stroke-width="0.7679999" fill="#000000" fill-rule="evenodd" /><path id="1659" transform="matrix(1 0 0 -1 0 842)" d="M39.816 402.824C 39.816 401.9757 39.12831 401.288 38.28 401.288C 37.43169 401.288 36.744 401.9757 36.744 402.824C 36.744 403.6723 37.43169 404.36 38.28 404.36C 39.12831 404.36 39.816 403.6723 39.816 402.824z" stroke="#000000" stroke-width="0.7679999" fill="#000000" fill-rule="evenodd" /><path id="1741" transform="matrix(1 0 0 -1 0 842)" d="M39.816 389C 39.816 388.1517 39.12831 387.464 38.28 387.464C 37.43169 387.464 36.744 388.1517 36.744 389C 36.744 389.8483 37.43169 390.536 38.28 390.536C 39.12831 390.536 39.816 389.8483 39.816 389z" stroke="#000000" stroke-width="0.7679999" fill="#000000" fill-rule="evenodd" /><path id="1779" transform="matrix(1 0 0 -1 0 842)" d="M39.816 375.176C 39.816 374.3277 39.12831 373.64 38.28 373.64C 37.43169 373.64 36.744 374.3277 36.744 375.176C 36.744 376.0243 37.43169 376.712 38.28 376.712C 39.12831 376.712 39.816 376.0243 39.816 375.176z" stroke="#000000" stroke-width="0.7679999" fill="#000000" fill-rule="evenodd" /><path id="1897" transform="matrix(1 0 0 -1 0 842)" d="M39.816 325.256C 39.816 324.4077 39.12831 323.72 38.28 323.72C 37.43169 323.72 36.744 324.4077 36.744 325.256C 36.744 326.1043 37.43169 326.792 38.28 326.792C 39.12831 326.792 39.816 326.1043 39.816 325.256z" stroke="#000000" stroke-width="0.7679999" fill="#000000" fill-rule="evenodd" /><path id="1954" transform="matrix(1 0 0 -1 0 842)" d="M39.816 311.432C 39.816 310.5837 39.12831 309.896 38.28 309.896C 37.43169 309.896 36.744 310.5837 36.744 311.432C 36.744 312.2803 37.43169 312.968 38.28 312.968C 39.12831 312.968 39.816 312.2803 39.816 311.432z" stroke="#000000" stroke-width="0.7679999" fill="#000000" fill-rule="evenodd" /><path id="2044" transform="matrix(1 0 0 -1 0 842)" d="M39.816 297.608C 39.816 296.7597 39.12831 296.072 38.28 296.072C 37.43169 296.072 36.744 296.7597 36.744 297.608C 36.744 298.4563 37.43169 299.144 38.28 299.144C 39.12831 299.144 39.816 298.4563 39.816 297.608z" stroke="#000000" stroke-width="0.7679999" fill="#000000" fill-rule="evenodd" /><path id="2141" transform="matrix(1 0 0 -1 0 842)" d="M39.816 269.96C 39.816 269.1117 39.12831 268.424 38.28 268.424C 37.43169 268.424 36.744 269.1117 36.744 269.96C 36.744 270.8083 37.43169 271.496 38.28 271.496C 39.12831 271.496 39.816 270.8083 39.816 269.96z" stroke="#000000" stroke-width="0.7679999" fill="#000000" fill-rule="evenodd" /><path id="2286" transform="matrix(1 0 0 -1 0 842)" d="M39.816 244.616C 39.816 243.7677 39.12831 243.08 38.28 243.08C 37.43169 243.08 36.744 243.7677 36.744 244.616C 36.744 245.4643 37.43169 246.152 38.28 246.152C 39.12831 246.152 39.816 245.4643 39.816 244.616z" stroke="#000000" stroke-width="0.7679999" fill="#000000" fill-rule="evenodd" /><path id="2447" transform="matrix(1 0 0 -1 0 842)" d="M39.816 216.968C 39.816 216.1198 39.12831 215.432 38.28 215.432C 37.43169 215.432 36.744 216.1198 36.744 216.968C 36.744 217.8163 37.43169 218.504 38.28 218.504C 39.12831 218.504 39.816 217.8163 39.816 216.968z" stroke="#000000" stroke-width="0.7679999" fill="#000000" fill-rule="evenodd" /><path id="2530" transform="matrix(1 0 0 -1 0 842)" d="M39.816 203.144C 39.816 202.2957 39.12831 201.608 38.28 201.608C 37.43169 201.608 36.744 202.2957 36.744 203.144C 36.744 203.9923 37.43169 204.68 38.28 204.68C 39.12831 204.68 39.816 203.9923 39.816 203.144z" stroke="#000000" stroke-width="0.7679999" fill="#000000" fill-rule="evenodd" /><path id="2603" transform="matrix(1 0 0 -1 0 842)" d="M39.816 189.32C 39.816 188.4717 39.12831 187.784 38.28 187.784C 37.43169 187.784 36.744 188.4717 36.744 189.32C 36.744 190.1683 37.43169 190.856 38.28 190.856C 39.12831 190.856 39.816 190.1683 39.816 189.32z" stroke="#000000" stroke-width="0.7679999" fill="#000000" fill-rule="evenodd" /><path id="2721" transform="matrix(1 0 0 -1 0 842)" d="M39.816 141.704C 39.816 140.8557 39.12831 140.168 38.28 140.168C 37.43169 140.168 36.744 140.8557 36.744 141.704C 36.744 142.5523 37.43169 143.24 38.28 143.24C 39.12831 143.24 39.816 142.5523 39.816 141.704z" stroke="#000000" stroke-width="0.7679999" fill="#000000" fill-rule="evenodd" /><path id="2849" transform="matrix(1 0 0 -1 0 842)" d="M39.816 127.88C 39.816 127.0317 39.12831 126.344 38.28 126.344C 37.43169 126.344 36.744 127.0317 36.744 127.88C 36.744 128.7283 37.43169 129.416 38.28 129.416C 39.12831 129.416 39.816 128.7283 39.816 127.88z" stroke="#000000" stroke-width="0.7679999" fill="#000000" fill-rule="evenodd" /><path id="2925" transform="matrix(1 0 0 -1 0 842)" d="M39.816 114.056C 39.816 113.2077 39.12831 112.52 38.28 112.52C 37.43169 112.52 36.744 113.2077 36.744 114.056C 36.744 114.9043 37.43169 115.592 38.28 115.592C 39.12831 115.592 39.816 114.9043 39.816 114.056z" stroke="#000000" stroke-width="0.7679999" fill="#000000" fill-rule="evenodd" /></g></g></g></svg>